<svg xmlns="http://www.w3.org/2000/svg" enable-background="new 0 0 24 24" viewBox="0 0 24 24" id="medium-m"><path d="m7.996 5.655v15.668c0 .223-.056.412-.167.568-.112.156-.275.234-.489.234-.152 0-.299-.036-.442-.107l-6.228-3.112c-.188-.089-.346-.238-.475-.447s-.195-.417-.195-.622v-15.227c0-.178.045-.33.134-.454.089-.125.219-.187.388-.187.125 0 .321.067.589.2l6.844 3.42c.027.026.041.048.041.066zm.857 1.349 7.152 11.568-7.152-3.553zm15.147.241v14.079c0 .223-.062.403-.188.541-.125.138-.295.207-.509.207s-.424-.058-.629-.174l-5.906-2.939zm-.04-1.603c0 .027-1.145 1.895-3.435 5.603s-3.632 5.88-4.025 6.512l-5.223-8.469 4.339-7.039c.152-.249.384-.374.696-.374.125 0 .241.027.348.08l7.246 3.607c.036.017.054.044.054.08z"></path></svg>